<!-- Wave effect svg -->
<svg xmlns="http://www.w3.org/2000/svg" xmlns:xlink="http://www.w3.org/1999/xlink" viewBox="-3842 3212.994 1439.15 437.06">
  <defs>
  <style>
  .a{fill:#c5003e ;opacity:0.15;}
  .b{fill:url(#gradient) ;opacity: 0.5}
  .c{fill:url(#gradient);}
  </style>
  <linearGradient id="gradient" x1="0%" y1="0%" x2="100%" y2="0%">
    <stop offset="0%" style="stop-color:#560f50;stop-opacity:1" />
    <stop offset="100%" style="stop-color:#c5003e;stop-opacity:1" />
  </linearGradient>
</defs>
<g transform="translate(-2402.85 3714.83) rotate(180)">
  <g transform="translate(0 64.776)">
    <path class="a" d="M-3842,480.333s385.867,51.911,596.161-78.415,511.37-27.168,603.947,78.415,239.042,0,239.042,0V107.776H-3842Z" transform="translate(3842 -90.199)"/>
    <path class="b" d="M-3842,456.065s383.219,61.483,584-70.062,523.528-28.643,616.1,70.062,239.042,0,239.042,0V107.776H-3842Z" transform="translate(3842 -86.345)"/>
    <path class="c" d="M-3842,456.065s306.568,45.61,569.079-67.119,538.453-31.586,631.03,67.119,239.042,0,239.042,0V107.776H-3842Z" transform="translate(3842 -107.776)"/>
  </g>
</g>
</svg>
